<mxfile host="app.diagrams.net" modified="2022-08-30T08:15:32.115Z" agent="5.0 (Macintosh; Intel Mac OS X 10_15_7) AppleWebKit/537.36 (KHTML, like Gecko) Chrome/104.0.0.0 Safari/537.36" etag="7Sx73gX38f7Q8KzTc5F-" version="20.2.7" type="github">
  <diagram id="5Sn9tdvOxL6AeOnIAffw" name="Page-1">
    <mxGraphModel dx="901" dy="615" grid="1" gridSize="10" guides="1" tooltips="1" connect="1" arrows="1" fold="1" page="1" pageScale="1" pageWidth="827" pageHeight="1169" math="0" shadow="0">
      <root>
        <mxCell id="0" />
        <mxCell id="1" parent="0" />
        <mxCell id="5mNcIMUa5XLyuIfT2FW1-139" style="edgeStyle=orthogonalEdgeStyle;rounded=0;orthogonalLoop=1;jettySize=auto;html=1;fontSize=6;" edge="1" parent="1" source="5mNcIMUa5XLyuIfT2FW1-14" target="5mNcIMUa5XLyuIfT2FW1-45">
          <mxGeometry relative="1" as="geometry" />
        </mxCell>
        <mxCell id="5mNcIMUa5XLyuIfT2FW1-140" style="edgeStyle=orthogonalEdgeStyle;rounded=0;orthogonalLoop=1;jettySize=auto;html=1;fontSize=6;" edge="1" parent="1" source="5mNcIMUa5XLyuIfT2FW1-14" target="5mNcIMUa5XLyuIfT2FW1-115">
          <mxGeometry relative="1" as="geometry">
            <mxPoint x="650" y="300" as="targetPoint" />
          </mxGeometry>
        </mxCell>
        <mxCell id="5mNcIMUa5XLyuIfT2FW1-14" value="Login Page" style="swimlane;labelBackgroundColor=default;swimlaneLine=1;glass=0;rounded=1;" vertex="1" parent="1">
          <mxGeometry x="270" y="40" width="287" height="180" as="geometry" />
        </mxCell>
        <mxCell id="5mNcIMUa5XLyuIfT2FW1-15" value="" style="rounded=1;whiteSpace=wrap;html=1;glass=0;labelBackgroundColor=default;gradientColor=none;" vertex="1" parent="5mNcIMUa5XLyuIfT2FW1-14">
          <mxGeometry x="84" y="40" width="120" height="120" as="geometry" />
        </mxCell>
        <mxCell id="5mNcIMUa5XLyuIfT2FW1-16" value="" style="rounded=1;whiteSpace=wrap;html=1;glass=0;labelBackgroundColor=default;gradientColor=none;" vertex="1" parent="5mNcIMUa5XLyuIfT2FW1-14">
          <mxGeometry x="102" y="65" width="85" height="20" as="geometry" />
        </mxCell>
        <mxCell id="5mNcIMUa5XLyuIfT2FW1-17" value="" style="rounded=1;whiteSpace=wrap;html=1;glass=0;labelBackgroundColor=default;gradientColor=none;" vertex="1" parent="5mNcIMUa5XLyuIfT2FW1-14">
          <mxGeometry x="102" y="95" width="85" height="20" as="geometry" />
        </mxCell>
        <mxCell id="5mNcIMUa5XLyuIfT2FW1-18" value="" style="rounded=1;whiteSpace=wrap;html=1;glass=0;labelBackgroundColor=default;gradientColor=none;" vertex="1" parent="5mNcIMUa5XLyuIfT2FW1-14">
          <mxGeometry x="124.5" y="130" width="45" height="10" as="geometry" />
        </mxCell>
        <mxCell id="5mNcIMUa5XLyuIfT2FW1-19" value="Login" style="text;html=1;strokeColor=none;fillColor=none;align=center;verticalAlign=middle;whiteSpace=wrap;rounded=0;glass=0;labelBackgroundColor=default;fontSize=5;" vertex="1" parent="5mNcIMUa5XLyuIfT2FW1-14">
          <mxGeometry x="137" y="129" width="20" height="10" as="geometry" />
        </mxCell>
        <mxCell id="5mNcIMUa5XLyuIfT2FW1-20" value="Username" style="text;html=1;strokeColor=none;fillColor=none;align=center;verticalAlign=middle;whiteSpace=wrap;rounded=0;glass=0;labelBackgroundColor=default;fontSize=5;" vertex="1" parent="5mNcIMUa5XLyuIfT2FW1-14">
          <mxGeometry x="107.5" y="69" width="20" height="10" as="geometry" />
        </mxCell>
        <mxCell id="5mNcIMUa5XLyuIfT2FW1-21" value="Password" style="text;html=1;strokeColor=none;fillColor=none;align=center;verticalAlign=middle;whiteSpace=wrap;rounded=0;glass=0;labelBackgroundColor=default;fontSize=5;" vertex="1" parent="5mNcIMUa5XLyuIfT2FW1-14">
          <mxGeometry x="107.5" y="99" width="20" height="10" as="geometry" />
        </mxCell>
        <mxCell id="5mNcIMUa5XLyuIfT2FW1-45" value="Retailer Page" style="swimlane;labelBackgroundColor=default;swimlaneLine=1;glass=0;rounded=1;" vertex="1" parent="1">
          <mxGeometry x="299" y="320" width="230" height="250" as="geometry">
            <mxRectangle x="299" y="320" width="120" height="30" as="alternateBounds" />
          </mxGeometry>
        </mxCell>
        <mxCell id="5mNcIMUa5XLyuIfT2FW1-46" value="" style="rounded=0;whiteSpace=wrap;html=1;glass=0;labelBackgroundColor=default;fontSize=5;gradientColor=none;" vertex="1" parent="5mNcIMUa5XLyuIfT2FW1-45">
          <mxGeometry y="20" width="230" height="20" as="geometry" />
        </mxCell>
        <mxCell id="5mNcIMUa5XLyuIfT2FW1-47" value="Navbar" style="text;html=1;strokeColor=none;fillColor=none;align=center;verticalAlign=middle;whiteSpace=wrap;rounded=0;glass=0;labelBackgroundColor=default;fontSize=9;" vertex="1" parent="5mNcIMUa5XLyuIfT2FW1-45">
          <mxGeometry x="-6" y="15" width="60" height="30" as="geometry" />
        </mxCell>
        <mxCell id="5mNcIMUa5XLyuIfT2FW1-48" value="Home" style="text;html=1;strokeColor=none;fillColor=none;align=center;verticalAlign=middle;whiteSpace=wrap;rounded=0;glass=0;labelBackgroundColor=default;fontSize=6;" vertex="1" parent="5mNcIMUa5XLyuIfT2FW1-45">
          <mxGeometry x="43.5" y="20" width="30" height="20" as="geometry" />
        </mxCell>
        <mxCell id="5mNcIMUa5XLyuIfT2FW1-49" value="Logout" style="text;html=1;strokeColor=none;fillColor=none;align=center;verticalAlign=middle;whiteSpace=wrap;rounded=0;glass=0;labelBackgroundColor=default;fontSize=6;" vertex="1" parent="5mNcIMUa5XLyuIfT2FW1-45">
          <mxGeometry x="197.5" y="20" width="30" height="20" as="geometry" />
        </mxCell>
        <mxCell id="5mNcIMUa5XLyuIfT2FW1-50" value="Sales History" style="text;html=1;strokeColor=none;fillColor=none;align=center;verticalAlign=middle;whiteSpace=wrap;rounded=0;glass=0;labelBackgroundColor=default;fontSize=6;" vertex="1" parent="5mNcIMUa5XLyuIfT2FW1-45">
          <mxGeometry x="65.88" y="20" width="55" height="20" as="geometry" />
        </mxCell>
        <mxCell id="5mNcIMUa5XLyuIfT2FW1-51" value="Inventory" style="text;html=1;strokeColor=none;fillColor=none;align=center;verticalAlign=middle;whiteSpace=wrap;rounded=0;glass=0;labelBackgroundColor=default;fontSize=6;" vertex="1" parent="5mNcIMUa5XLyuIfT2FW1-45">
          <mxGeometry x="156.5" y="20" width="55" height="20" as="geometry" />
        </mxCell>
        <mxCell id="5mNcIMUa5XLyuIfT2FW1-102" value="&amp;lt;RetailerPageView/&amp;gt;" style="text;html=1;strokeColor=none;fillColor=none;align=center;verticalAlign=middle;whiteSpace=wrap;rounded=0;glass=0;labelBackgroundColor=default;fontSize=9;" vertex="1" parent="5mNcIMUa5XLyuIfT2FW1-45">
          <mxGeometry x="85" y="45" width="60" height="30" as="geometry" />
        </mxCell>
        <mxCell id="5mNcIMUa5XLyuIfT2FW1-103" value="Every route has the children routes" style="text;html=1;strokeColor=none;fillColor=none;align=center;verticalAlign=middle;whiteSpace=wrap;rounded=0;glass=0;labelBackgroundColor=default;fontSize=6;" vertex="1" parent="5mNcIMUa5XLyuIfT2FW1-45">
          <mxGeometry x="85" y="65" width="60" height="30" as="geometry" />
        </mxCell>
        <mxCell id="5mNcIMUa5XLyuIfT2FW1-104" value="" style="rounded=0;whiteSpace=wrap;html=1;glass=0;labelBackgroundColor=default;fontSize=6;gradientColor=none;" vertex="1" parent="5mNcIMUa5XLyuIfT2FW1-45">
          <mxGeometry x="20" y="100.25" width="90" height="60" as="geometry" />
        </mxCell>
        <mxCell id="5mNcIMUa5XLyuIfT2FW1-105" value="" style="rounded=0;whiteSpace=wrap;html=1;glass=0;labelBackgroundColor=default;fontSize=6;gradientColor=none;" vertex="1" parent="5mNcIMUa5XLyuIfT2FW1-45">
          <mxGeometry x="123.25" y="100.25" width="87" height="60" as="geometry" />
        </mxCell>
        <mxCell id="5mNcIMUa5XLyuIfT2FW1-106" value="Sales History" style="text;html=1;strokeColor=none;fillColor=none;align=center;verticalAlign=middle;whiteSpace=wrap;rounded=0;glass=0;labelBackgroundColor=default;fontSize=6;" vertex="1" parent="5mNcIMUa5XLyuIfT2FW1-45">
          <mxGeometry x="42.13" y="92.25" width="44.75" height="15" as="geometry" />
        </mxCell>
        <mxCell id="5mNcIMUa5XLyuIfT2FW1-107" value="Sales List &#xa;Sales Action&#xa;    1. Update&#xa;    2. Cancel" style="text;strokeColor=none;fillColor=none;align=left;verticalAlign=middle;spacingLeft=4;spacingRight=4;overflow=hidden;points=[[0,0.5],[1,0.5]];portConstraint=eastwest;rotatable=0;rounded=1;glass=0;labelBackgroundColor=default;fontSize=6;" vertex="1" parent="5mNcIMUa5XLyuIfT2FW1-45">
          <mxGeometry x="27.5" y="109.75" width="60" height="40.5" as="geometry" />
        </mxCell>
        <mxCell id="5mNcIMUa5XLyuIfT2FW1-108" value="Inventory" style="text;html=1;strokeColor=none;fillColor=none;align=center;verticalAlign=middle;whiteSpace=wrap;rounded=0;glass=0;labelBackgroundColor=default;fontSize=6;" vertex="1" parent="5mNcIMUa5XLyuIfT2FW1-45">
          <mxGeometry x="141.75" y="89.75" width="55" height="20" as="geometry" />
        </mxCell>
        <mxCell id="5mNcIMUa5XLyuIfT2FW1-109" value="Inventory List&#xa;Inventory Action&#xa;    1. Add&#xa;    2. Order request to dealer&#xa;    3. Delete" style="text;strokeColor=none;fillColor=none;align=left;verticalAlign=middle;spacingLeft=4;spacingRight=4;overflow=hidden;points=[[0,0.5],[1,0.5]];portConstraint=eastwest;rotatable=0;rounded=1;glass=0;labelBackgroundColor=default;fontSize=6;" vertex="1" parent="5mNcIMUa5XLyuIfT2FW1-45">
          <mxGeometry x="122" y="104.88" width="88" height="50.25" as="geometry" />
        </mxCell>
        <mxCell id="5mNcIMUa5XLyuIfT2FW1-110" value="" style="rounded=0;whiteSpace=wrap;html=1;glass=0;labelBackgroundColor=default;fontSize=6;gradientColor=none;" vertex="1" parent="5mNcIMUa5XLyuIfT2FW1-45">
          <mxGeometry x="20.5" y="175.5" width="89.5" height="60" as="geometry" />
        </mxCell>
        <mxCell id="5mNcIMUa5XLyuIfT2FW1-111" value="Request History" style="text;html=1;strokeColor=none;fillColor=none;align=center;verticalAlign=middle;whiteSpace=wrap;rounded=0;glass=0;labelBackgroundColor=default;fontSize=6;" vertex="1" parent="5mNcIMUa5XLyuIfT2FW1-45">
          <mxGeometry x="39" y="165" width="55" height="20" as="geometry" />
        </mxCell>
        <mxCell id="5mNcIMUa5XLyuIfT2FW1-112" value="Product Request&#xa;Histories" style="text;strokeColor=none;fillColor=none;align=left;verticalAlign=middle;spacingLeft=4;spacingRight=4;overflow=hidden;points=[[0,0.5],[1,0.5]];portConstraint=eastwest;rotatable=0;rounded=1;glass=0;labelBackgroundColor=default;fontSize=6;" vertex="1" parent="5mNcIMUa5XLyuIfT2FW1-45">
          <mxGeometry x="25" y="180.37" width="60" height="50.25" as="geometry" />
        </mxCell>
        <mxCell id="5mNcIMUa5XLyuIfT2FW1-133" value="Request History" style="text;html=1;strokeColor=none;fillColor=none;align=center;verticalAlign=middle;whiteSpace=wrap;rounded=0;glass=0;labelBackgroundColor=default;fontSize=6;" vertex="1" parent="5mNcIMUa5XLyuIfT2FW1-45">
          <mxGeometry x="114" y="20" width="55" height="20" as="geometry" />
        </mxCell>
        <mxCell id="5mNcIMUa5XLyuIfT2FW1-135" value="" style="rounded=0;whiteSpace=wrap;html=1;glass=0;labelBackgroundColor=default;fontSize=6;gradientColor=none;" vertex="1" parent="5mNcIMUa5XLyuIfT2FW1-45">
          <mxGeometry x="122" y="175.5" width="89.5" height="60" as="geometry" />
        </mxCell>
        <mxCell id="5mNcIMUa5XLyuIfT2FW1-136" value="Home" style="text;html=1;strokeColor=none;fillColor=none;align=center;verticalAlign=middle;whiteSpace=wrap;rounded=0;glass=0;labelBackgroundColor=default;fontSize=6;" vertex="1" parent="5mNcIMUa5XLyuIfT2FW1-45">
          <mxGeometry x="140.5" y="165" width="55" height="20" as="geometry" />
        </mxCell>
        <mxCell id="5mNcIMUa5XLyuIfT2FW1-137" value="POS&#xa;Billing&#xa;Product List" style="text;strokeColor=none;fillColor=none;align=left;verticalAlign=middle;spacingLeft=4;spacingRight=4;overflow=hidden;points=[[0,0.5],[1,0.5]];portConstraint=eastwest;rotatable=0;rounded=1;glass=0;labelBackgroundColor=default;fontSize=6;" vertex="1" parent="5mNcIMUa5XLyuIfT2FW1-45">
          <mxGeometry x="126.5" y="180.37" width="60" height="50.25" as="geometry" />
        </mxCell>
        <mxCell id="5mNcIMUa5XLyuIfT2FW1-53" value="Admin Page" style="swimlane;labelBackgroundColor=default;swimlaneLine=1;glass=0;rounded=1;" vertex="1" parent="1">
          <mxGeometry x="35" y="320" width="230" height="170" as="geometry">
            <mxRectangle x="35" y="320" width="110" height="30" as="alternateBounds" />
          </mxGeometry>
        </mxCell>
        <mxCell id="5mNcIMUa5XLyuIfT2FW1-54" value="" style="rounded=0;whiteSpace=wrap;html=1;glass=0;labelBackgroundColor=default;fontSize=5;gradientColor=none;" vertex="1" parent="5mNcIMUa5XLyuIfT2FW1-53">
          <mxGeometry y="20" width="230" height="20" as="geometry" />
        </mxCell>
        <mxCell id="5mNcIMUa5XLyuIfT2FW1-55" value="Navbar" style="text;html=1;strokeColor=none;fillColor=none;align=center;verticalAlign=middle;whiteSpace=wrap;rounded=0;glass=0;labelBackgroundColor=default;fontSize=9;" vertex="1" parent="5mNcIMUa5XLyuIfT2FW1-53">
          <mxGeometry x="-6" y="15" width="60" height="30" as="geometry" />
        </mxCell>
        <mxCell id="5mNcIMUa5XLyuIfT2FW1-56" value="Products" style="text;html=1;strokeColor=none;fillColor=none;align=center;verticalAlign=middle;whiteSpace=wrap;rounded=0;glass=0;labelBackgroundColor=default;fontSize=6;" vertex="1" parent="5mNcIMUa5XLyuIfT2FW1-53">
          <mxGeometry x="116.5" y="20" width="30" height="20" as="geometry" />
        </mxCell>
        <mxCell id="5mNcIMUa5XLyuIfT2FW1-57" value="Logout" style="text;html=1;strokeColor=none;fillColor=none;align=center;verticalAlign=middle;whiteSpace=wrap;rounded=0;glass=0;labelBackgroundColor=default;fontSize=6;" vertex="1" parent="5mNcIMUa5XLyuIfT2FW1-53">
          <mxGeometry x="196.5" y="20" width="30" height="20" as="geometry" />
        </mxCell>
        <mxCell id="5mNcIMUa5XLyuIfT2FW1-59" value="User Management" style="text;html=1;strokeColor=none;fillColor=none;align=center;verticalAlign=middle;whiteSpace=wrap;rounded=0;glass=0;labelBackgroundColor=default;fontSize=6;" vertex="1" parent="5mNcIMUa5XLyuIfT2FW1-53">
          <mxGeometry x="146.5" y="20" width="55" height="20" as="geometry" />
        </mxCell>
        <mxCell id="5mNcIMUa5XLyuIfT2FW1-60" value="&amp;lt;AdminPageView/&amp;gt;" style="text;html=1;strokeColor=none;fillColor=none;align=center;verticalAlign=middle;whiteSpace=wrap;rounded=0;glass=0;labelBackgroundColor=default;fontSize=9;" vertex="1" parent="5mNcIMUa5XLyuIfT2FW1-53">
          <mxGeometry x="85" y="45" width="60" height="30" as="geometry" />
        </mxCell>
        <mxCell id="5mNcIMUa5XLyuIfT2FW1-61" value="Every route has the children routes" style="text;html=1;strokeColor=none;fillColor=none;align=center;verticalAlign=middle;whiteSpace=wrap;rounded=0;glass=0;labelBackgroundColor=default;fontSize=6;" vertex="1" parent="5mNcIMUa5XLyuIfT2FW1-53">
          <mxGeometry x="85" y="65" width="60" height="30" as="geometry" />
        </mxCell>
        <mxCell id="5mNcIMUa5XLyuIfT2FW1-79" value="" style="rounded=0;whiteSpace=wrap;html=1;glass=0;labelBackgroundColor=default;fontSize=6;gradientColor=none;" vertex="1" parent="5mNcIMUa5XLyuIfT2FW1-53">
          <mxGeometry x="19" y="100" width="88" height="60" as="geometry" />
        </mxCell>
        <mxCell id="5mNcIMUa5XLyuIfT2FW1-80" value="" style="rounded=0;whiteSpace=wrap;html=1;glass=0;labelBackgroundColor=default;fontSize=6;gradientColor=none;" vertex="1" parent="5mNcIMUa5XLyuIfT2FW1-53">
          <mxGeometry x="121" y="100" width="90" height="60" as="geometry" />
        </mxCell>
        <mxCell id="5mNcIMUa5XLyuIfT2FW1-82" value="Products" style="text;html=1;strokeColor=none;fillColor=none;align=center;verticalAlign=middle;whiteSpace=wrap;rounded=0;glass=0;labelBackgroundColor=default;fontSize=6;" vertex="1" parent="5mNcIMUa5XLyuIfT2FW1-53">
          <mxGeometry x="45.25" y="92" width="35.5" height="15" as="geometry" />
        </mxCell>
        <mxCell id="5mNcIMUa5XLyuIfT2FW1-85" value="Products List &#xa;Product Action&#xa;    1. Add&#xa;    2. Update&#xa;    3. Delete" style="text;strokeColor=none;fillColor=none;align=left;verticalAlign=middle;spacingLeft=4;spacingRight=4;overflow=hidden;points=[[0,0.5],[1,0.5]];portConstraint=eastwest;rotatable=0;rounded=1;glass=0;labelBackgroundColor=default;fontSize=6;" vertex="1" parent="5mNcIMUa5XLyuIfT2FW1-53">
          <mxGeometry x="21.5" y="109.5" width="60" height="40.5" as="geometry" />
        </mxCell>
        <mxCell id="5mNcIMUa5XLyuIfT2FW1-86" value="User Management" style="text;html=1;strokeColor=none;fillColor=none;align=center;verticalAlign=middle;whiteSpace=wrap;rounded=0;glass=0;labelBackgroundColor=default;fontSize=6;" vertex="1" parent="5mNcIMUa5XLyuIfT2FW1-53">
          <mxGeometry x="138.5" y="89.5" width="55" height="20" as="geometry" />
        </mxCell>
        <mxCell id="5mNcIMUa5XLyuIfT2FW1-87" value="User List&#xa;User Action&#xa;    1. Add&#xa;    2. Update&#xa;    3. User Status" style="text;strokeColor=none;fillColor=none;align=left;verticalAlign=middle;spacingLeft=4;spacingRight=4;overflow=hidden;points=[[0,0.5],[1,0.5]];portConstraint=eastwest;rotatable=0;rounded=1;glass=0;labelBackgroundColor=default;fontSize=6;" vertex="1" parent="5mNcIMUa5XLyuIfT2FW1-53">
          <mxGeometry x="131" y="105.75" width="60" height="50.25" as="geometry" />
        </mxCell>
        <mxCell id="5mNcIMUa5XLyuIfT2FW1-115" value="Dealer Page" style="swimlane;labelBackgroundColor=default;swimlaneLine=1;glass=0;rounded=1;" vertex="1" parent="1">
          <mxGeometry x="559" y="320" width="230" height="170" as="geometry">
            <mxRectangle x="559" y="320" width="150" height="30" as="alternateBounds" />
          </mxGeometry>
        </mxCell>
        <mxCell id="5mNcIMUa5XLyuIfT2FW1-116" value="" style="rounded=0;whiteSpace=wrap;html=1;glass=0;labelBackgroundColor=default;fontSize=5;gradientColor=none;" vertex="1" parent="5mNcIMUa5XLyuIfT2FW1-115">
          <mxGeometry y="20" width="230" height="20" as="geometry" />
        </mxCell>
        <mxCell id="5mNcIMUa5XLyuIfT2FW1-117" value="Navbar" style="text;html=1;strokeColor=none;fillColor=none;align=center;verticalAlign=middle;whiteSpace=wrap;rounded=0;glass=0;labelBackgroundColor=default;fontSize=9;" vertex="1" parent="5mNcIMUa5XLyuIfT2FW1-115">
          <mxGeometry x="-6" y="15" width="60" height="30" as="geometry" />
        </mxCell>
        <mxCell id="5mNcIMUa5XLyuIfT2FW1-119" value="Logout" style="text;html=1;strokeColor=none;fillColor=none;align=center;verticalAlign=middle;whiteSpace=wrap;rounded=0;glass=0;labelBackgroundColor=default;fontSize=6;" vertex="1" parent="5mNcIMUa5XLyuIfT2FW1-115">
          <mxGeometry x="196.5" y="20" width="30" height="20" as="geometry" />
        </mxCell>
        <mxCell id="5mNcIMUa5XLyuIfT2FW1-120" value="Request History" style="text;html=1;strokeColor=none;fillColor=none;align=center;verticalAlign=middle;whiteSpace=wrap;rounded=0;glass=0;labelBackgroundColor=default;fontSize=6;" vertex="1" parent="5mNcIMUa5XLyuIfT2FW1-115">
          <mxGeometry x="106.5" y="20" width="55" height="20" as="geometry" />
        </mxCell>
        <mxCell id="5mNcIMUa5XLyuIfT2FW1-121" value="Inventory" style="text;html=1;strokeColor=none;fillColor=none;align=center;verticalAlign=middle;whiteSpace=wrap;rounded=0;glass=0;labelBackgroundColor=default;fontSize=6;" vertex="1" parent="5mNcIMUa5XLyuIfT2FW1-115">
          <mxGeometry x="146.5" y="20" width="55" height="20" as="geometry" />
        </mxCell>
        <mxCell id="5mNcIMUa5XLyuIfT2FW1-122" value="&amp;lt;DealerPageView/&amp;gt;" style="text;html=1;strokeColor=none;fillColor=none;align=center;verticalAlign=middle;whiteSpace=wrap;rounded=0;glass=0;labelBackgroundColor=default;fontSize=9;" vertex="1" parent="5mNcIMUa5XLyuIfT2FW1-115">
          <mxGeometry x="85" y="45" width="60" height="30" as="geometry" />
        </mxCell>
        <mxCell id="5mNcIMUa5XLyuIfT2FW1-123" value="Every route has the children routes" style="text;html=1;strokeColor=none;fillColor=none;align=center;verticalAlign=middle;whiteSpace=wrap;rounded=0;glass=0;labelBackgroundColor=default;fontSize=6;" vertex="1" parent="5mNcIMUa5XLyuIfT2FW1-115">
          <mxGeometry x="85" y="65" width="60" height="30" as="geometry" />
        </mxCell>
        <mxCell id="5mNcIMUa5XLyuIfT2FW1-124" value="" style="rounded=0;whiteSpace=wrap;html=1;glass=0;labelBackgroundColor=default;fontSize=6;gradientColor=none;" vertex="1" parent="5mNcIMUa5XLyuIfT2FW1-115">
          <mxGeometry x="20.5" y="99.75" width="86" height="60" as="geometry" />
        </mxCell>
        <mxCell id="5mNcIMUa5XLyuIfT2FW1-125" value="" style="rounded=0;whiteSpace=wrap;html=1;glass=0;labelBackgroundColor=default;fontSize=6;gradientColor=none;" vertex="1" parent="5mNcIMUa5XLyuIfT2FW1-115">
          <mxGeometry x="120" y="99.75" width="90" height="60" as="geometry" />
        </mxCell>
        <mxCell id="5mNcIMUa5XLyuIfT2FW1-126" value="Request History" style="text;html=1;strokeColor=none;fillColor=none;align=center;verticalAlign=middle;whiteSpace=wrap;rounded=0;glass=0;labelBackgroundColor=default;fontSize=6;" vertex="1" parent="5mNcIMUa5XLyuIfT2FW1-115">
          <mxGeometry x="38.56" y="91" width="49.87" height="15" as="geometry" />
        </mxCell>
        <mxCell id="5mNcIMUa5XLyuIfT2FW1-127" value="Request Histories&#xa;Request Action &#xa;    1. Approve&#xa;    2. Reject" style="text;strokeColor=none;fillColor=none;align=left;verticalAlign=middle;spacingLeft=4;spacingRight=4;overflow=hidden;points=[[0,0.5],[1,0.5]];portConstraint=eastwest;rotatable=0;rounded=1;glass=0;labelBackgroundColor=default;fontSize=6;" vertex="1" parent="5mNcIMUa5XLyuIfT2FW1-115">
          <mxGeometry x="27.5" y="107.5" width="60" height="40.5" as="geometry" />
        </mxCell>
        <mxCell id="5mNcIMUa5XLyuIfT2FW1-128" value="Inventory" style="text;html=1;strokeColor=none;fillColor=none;align=center;verticalAlign=middle;whiteSpace=wrap;rounded=0;glass=0;labelBackgroundColor=default;fontSize=6;" vertex="1" parent="5mNcIMUa5XLyuIfT2FW1-115">
          <mxGeometry x="143" y="88.5" width="55" height="20" as="geometry" />
        </mxCell>
        <mxCell id="5mNcIMUa5XLyuIfT2FW1-129" value="Inventory List&#xa;Inventory Action&#xa;    1. Add&#xa;    2. Order request to admin&#xa;    3. Delete" style="text;strokeColor=none;fillColor=none;align=left;verticalAlign=middle;spacingLeft=4;spacingRight=4;overflow=hidden;points=[[0,0.5],[1,0.5]];portConstraint=eastwest;rotatable=0;rounded=1;glass=0;labelBackgroundColor=default;fontSize=6;" vertex="1" parent="5mNcIMUa5XLyuIfT2FW1-115">
          <mxGeometry x="124" y="105.63" width="90" height="50.25" as="geometry" />
        </mxCell>
        <mxCell id="5mNcIMUa5XLyuIfT2FW1-146" value="&lt;font style=&quot;font-size: 10px;&quot;&gt;Retailer Role&lt;/font&gt;" style="text;html=1;strokeColor=none;fillColor=none;align=center;verticalAlign=middle;whiteSpace=wrap;rounded=0;glass=0;labelBackgroundColor=default;fontSize=6;" vertex="1" parent="1">
          <mxGeometry x="384" y="250" width="60" height="30" as="geometry" />
        </mxCell>
        <mxCell id="5mNcIMUa5XLyuIfT2FW1-147" value="&lt;font style=&quot;font-size: 10px;&quot;&gt;Dealer Role&lt;/font&gt;" style="text;html=1;strokeColor=none;fillColor=none;align=center;verticalAlign=middle;whiteSpace=wrap;rounded=0;glass=0;labelBackgroundColor=default;fontSize=6;" vertex="1" parent="1">
          <mxGeometry x="639" y="170" width="70" height="30" as="geometry" />
        </mxCell>
        <mxCell id="5mNcIMUa5XLyuIfT2FW1-148" value="" style="group" vertex="1" connectable="0" parent="1">
          <mxGeometry x="120" y="170" width="60" height="30" as="geometry" />
        </mxCell>
        <mxCell id="5mNcIMUa5XLyuIfT2FW1-142" style="edgeStyle=orthogonalEdgeStyle;rounded=0;orthogonalLoop=1;jettySize=auto;html=1;entryX=0.5;entryY=0;entryDx=0;entryDy=0;fontSize=6;" edge="1" parent="5mNcIMUa5XLyuIfT2FW1-148" source="5mNcIMUa5XLyuIfT2FW1-14" target="5mNcIMUa5XLyuIfT2FW1-53">
          <mxGeometry relative="1" as="geometry" />
        </mxCell>
        <mxCell id="5mNcIMUa5XLyuIfT2FW1-145" value="&lt;font style=&quot;font-size: 10px;&quot;&gt;Admin role&lt;/font&gt;" style="text;html=1;strokeColor=none;fillColor=none;align=center;verticalAlign=middle;whiteSpace=wrap;rounded=0;glass=0;labelBackgroundColor=default;fontSize=6;" vertex="1" parent="5mNcIMUa5XLyuIfT2FW1-148">
          <mxGeometry width="60" height="30" as="geometry" />
        </mxCell>
      </root>
    </mxGraphModel>
  </diagram>
</mxfile>
